<?xml version="1.0" encoding="iso-8859-1"?>
<!-- Generator: Adobe Illustrator 19.0.0, SVG Export Plug-In . SVG Version: 6.00 Build 0)  -->
<svg version="1.1" id="Capa_1" xmlns="http://www.w3.org/2000/svg" xmlns:xlink="http://www.w3.org/1999/xlink" x="0px" y="0px"
	 viewBox="0 0 480 480" style="enable-background:new 0 0 480 480;" xml:space="preserve">
<g>
	<path style="fill:#83D8EF;" d="M240.168,480c-79.024,0-143.32-107.664-143.32-240S161.144,0,240.168,0
		c15.002,0.078,29.761,3.798,43.008,10.84l1.496,1.008L325.72,47c36.168,44.944,57.768,117.096,57.768,193
		C383.488,372.336,319.192,480,240.168,480z M240.168,16c-70.2,0-127.32,100.488-127.32,224s57.12,224,127.32,224
		s127.32-100.488,127.32-224c0-72.048-20.088-140.152-53.768-182.4L275,24.64C264.239,19.037,252.3,16.076,240.168,16z"/>
	<path style="fill:#83D8EF;" d="M146.376,413.152c-30.242,1.183-60.152-6.662-85.92-22.536l-1.488-1.32l-29.48-33.744
		c-34.4-69.328,26.592-174.4,138.824-239.2c114.608-66.16,240-64.312,279.504,4.12S426.24,298.4,311.632,364.6
		C256.288,396.52,197.008,413.152,146.376,413.152L146.376,413.152z M70.272,377.952c51.048,33.912,146.776,22.816,233.36-27.2
		C410.6,288.984,469.088,189.28,433.96,128.48s-150.68-60-257.648,1.736C73.648,189.496,14.296,286.696,43.36,347.512
		L70.272,377.952z"/>
	<path style="fill:#83D8EF;" d="M332.744,413.472c-50.856,0-109.256-17.024-164.456-48.872C53.696,298.4-7.384,188.92,32.12,120.48
		s164.896-70.288,279.512-4.12c54.872,31.68,99.336,74.056,125.192,119.304c26.64,46.616,30.544,90.944,10.992,124.8
		c-5.036,8.686-11.491,16.468-19.096,23.024l-1.648,1.104l-46.552,23.136C364.901,411.652,348.848,413.582,332.744,413.472
		L332.744,413.472z M146.416,83.384c-45.992,0-83.072,15.008-100.432,45.096c-35.104,60.8,23.352,160.504,130.304,222.264
		c68.56,39.576,144.872,55.512,199.376,41.72l43.296-21.696c5.939-5.255,10.995-11.43,14.976-18.288
		c16.592-28.736,12.68-67.4-11.024-108.872c-24.48-42.832-66.848-83.104-119.304-113.392C249.6,99.024,193.36,83.384,146.416,83.384
		L146.416,83.384z"/>
</g>
<circle style="fill:#FBCC34;" cx="239.488" cy="240" r="72"/>
<circle style="fill:#29485A;" cx="47.488" cy="368" r="24"/>
<circle style="fill:#55D08F;" cx="399.488" cy="392" r="24"/>
<circle style="fill:#FF3D53;" cx="303.488" cy="32" r="24"/>
<g>
</g>
<g>
</g>
<g>
</g>
<g>
</g>
<g>
</g>
<g>
</g>
<g>
</g>
<g>
</g>
<g>
</g>
<g>
</g>
<g>
</g>
<g>
</g>
<g>
</g>
<g>
</g>
<g>
</g>
</svg>
